<svg xmlns="http://www.w3.org/2000/svg" viewBox="0 0 438.08 170.83"><defs><style>.cls-1{fill:none;}.cls-2{font-size:93.2px;letter-spacing:-0.06em;}.cls-2,.cls-4{font-family:Montserrat-Black, Montserrat;font-weight:800;}.cls-3{letter-spacing:-0.04em;}.cls-4{font-size:81.84px;letter-spacing:-0.02em;}.cls-5{letter-spacing:-0.06em;}.cls-6{letter-spacing:-0.04em;}</style></defs><g id="Layer_2" data-name="Layer 2"><g id="Layer_1-2" data-name="Layer 1"><g id="Layer_3_copy" data-name="Layer 3 copy"><path class="cls-1" d="M23.26,43.25A12.42,12.42,0,0,1,35.68,30.83"/><path class="cls-1" d="M179.29,30.83a12.42,12.42,0,0,1,12.42,12.42"/><path class="cls-1" d="M35.68,123.44A12.42,12.42,0,0,1,23.26,111"/><path class="cls-1" d="M191.71,111a12.42,12.42,0,0,1-12.42,12.42"/><path class="cls-1" d="M23.31,75.18V43.28A12.42,12.42,0,0,1,35.73,30.86H68.32"/><path class="cls-1" d="M147.26,30.86h32.13a12.42,12.42,0,0,1,12.42,12.42v31.9"/><path class="cls-1" d="M68.55,123.42H35.73A12.42,12.42,0,0,1,23.31,111V79.56"/><path class="cls-1" d="M191.81,79.33V111a12.42,12.42,0,0,1-12.42,12.42H147.26"/><path d="M130.68,94.84a29.2,29.2,0,1,1,6-17.73A29.14,29.14,0,0,1,130.68,94.84Z"/><path class="cls-1" d="M.11,112.48a35,35,0,0,0,35,35"/><path class="cls-1" d="M35.14,7.06a35,35,0,0,0-35,35"/><path class="cls-1" d="M130.64,147.42v-24h48.52A12.42,12.42,0,0,0,191.58,111V43.28a12.42,12.42,0,0,0-12.42-12.42H130.64V7.09m-45.47,0V30.86H35.73A12.42,12.42,0,0,0,23.31,43.28V111a12.42,12.42,0,0,0,12.42,12.42H85.17v24"/><path class="cls-1" d="M215.39,42.08a35,35,0,0,0-35-35"/><path class="cls-1" d="M180.36,147.51a35,35,0,0,0,35-35"/><path d="M215.35,42.11v70.52a35,35,0,0,1-35,35H130.64V123.42h48.52A12.42,12.42,0,0,0,191.58,111V43.28a12.42,12.42,0,0,0-12.42-12.42H130.64V7.09h49.68A35,35,0,0,1,215.35,42.11Z"/><path d="M35.73,123.42H85.17v24.23H35a35,35,0,0,1-35-35V42.11a35,35,0,0,1,35-35H85.17V30.86H35.73A12.42,12.42,0,0,0,23.31,43.28V111A12.42,12.42,0,0,0,35.73,123.42Z"/><path class="cls-1" d="M179.39,123.44A12.42,12.42,0,0,0,191.81,111V43.25a12.42,12.42,0,0,0-12.42-12.42m-143.66,0A12.42,12.42,0,0,0,23.31,43.25V111a12.42,12.42,0,0,0,12.42,12.42"/></g><text class="cls-2" transform="translate(225.08 79.22) scale(0.69 1)">W<tspan class="cls-3" x="107.27" y="0">PGU</tspan></text><text class="cls-4" transform="translate(237.48 148.73)">10<tspan class="cls-5" x="87.57" y="0">7</tspan><tspan class="cls-6" x="135.03" y="0">.</tspan><tspan x="156.64" y="0">1</tspan></text></g></g></svg>