<?xml version="1.0" encoding="utf-8"?>
<!-- Generator: Adobe Illustrator 25.2.3, SVG Export Plug-In . SVG Version: 6.00 Build 0)  -->
<svg version="1.1" id="Layer_1" xmlns="http://www.w3.org/2000/svg" xmlns:xlink="http://www.w3.org/1999/xlink" x="0px" y="0px"
	 viewBox="0 0 1204.6 154.5" style="enable-background:new 0 0 1204.6 154.5;" xml:space="preserve">
<style type="text/css">
	.st0{fill:none;}
	.st1{enable-background:new    ;}
</style>
<g id="Layer_3_copy">
	<path class="st0" d="M37,42.6c0-6.9,5.6-12.4,12.4-12.4"/>
	<path class="st0" d="M193,30.2c6.9,0,12.4,5.6,12.4,12.4"/>
	<path class="st0" d="M49.4,122.8c-6.9,0-12.4-5.6-12.4-12.4c0,0,0,0,0,0"/>
	<path class="st0" d="M205.4,110.4c0,6.9-5.6,12.4-12.4,12.4"/>
	<path class="st0" d="M37,74.5V42.6c0-6.9,5.6-12.4,12.4-12.4H82"/>
	<path class="st0" d="M161,30.2h32.1c6.9,0,12.4,5.6,12.4,12.4v31.9"/>
	<path class="st0" d="M82.3,122.8H49.4c-6.9,0-12.4-5.6-12.4-12.4V78.9"/>
	<path class="st0" d="M205.5,78.7v31.7c0,6.9-5.6,12.4-12.4,12.4H161"/>
	<path d="M144.4,94.2c-9.8,12.8-28.1,15.3-40.9,5.5S88.2,71.6,98,58.7s28.1-15.3,40.9-5.5c7.2,5.5,11.5,14.1,11.5,23.2
		C150.4,82.9,148.3,89.1,144.4,94.2z"/>
	<path class="st0" d="M13.8,111.8c0,19.3,15.7,35,35,35c0,0,0,0,0,0"/>
	<path class="st0" d="M48.9,6.4c-19.3,0-35,15.7-35,35l0,0"/>
	<path class="st0" d="M144.4,146.8v-24h48.5c6.9,0,12.4-5.6,12.4-12.4V42.6c0-6.9-5.6-12.4-12.4-12.4h-48.5V6.5 M98.9,6.5v23.8H49.4
		c-6.9,0-12.4,5.6-12.4,12.4v67.7c0,6.9,5.6,12.4,12.4,12.4h49.4v24"/>
	<path class="st0" d="M229.1,41.4c0-19.3-15.7-35-35-35"/>
	<path class="st0" d="M194.1,146.9c19.3,0,35-15.7,35-35l0,0"/>
	<path d="M229.1,41.5V112c0,19.3-15.7,35-35,35c0,0,0,0,0,0h-49.7v-24.2h48.5c6.9,0,12.4-5.6,12.4-12.4V42.6
		c0-6.9-5.6-12.4-12.4-12.4h-48.5V6.5H194C213.4,6.4,229,22.1,229.1,41.5C229.1,41.4,229.1,41.5,229.1,41.5z"/>
	<path d="M49.4,122.8h49.4V147H48.7c-19.3,0-35-15.7-35-35V41.5c0-19.3,15.7-35,35-35h50.2v23.8H49.4c-6.9,0-12.4,5.6-12.4,12.4
		v67.7C37,117.2,42.6,122.8,49.4,122.8z"/>
	<path class="st0" d="M193.1,122.8c6.9,0,12.4-5.6,12.4-12.4c0,0,0,0,0,0V42.6c0-6.9-5.6-12.4-12.4-12.4 M49.4,30.2
		c-6.9,0-12.4,5.6-12.4,12.4v67.8c0,6.9,5.6,12.4,12.4,12.4"/>
</g>
<g class="st1">
	<path d="M484,6.5L438.4,147h-42.6L369,61.5L340.9,147h-42.6L252.7,6.5h41L322,96.2l29.7-89.8h36.5L416.6,97l29.5-90.6H484z"/>
	<path d="M587.6,12.8C597,17,604.2,23,609.3,30.9c5.1,7.8,7.6,17,7.6,27.6c0,10.6-2.5,19.7-7.6,27.5c-5.1,7.8-12.3,13.8-21.7,18
		c-9.4,4.2-20.4,6.3-33.1,6.3H530V147h-39.8V6.5h64.3C567.2,6.5,578.3,8.6,587.6,12.8z M570.6,73.6c4.1-3.5,6.2-8.6,6.2-15.2
		c0-6.6-2.1-11.6-6.2-15.3c-4.2-3.6-10.3-5.4-18.5-5.4H530v41.2h22.1C560.3,78.9,566.4,77.2,570.6,73.6z"/>
	<path d="M724.4,73.7h35.1V132c-8,5.8-17.3,10.2-27.7,13.3c-10.4,3.1-20.9,4.6-31.3,4.6c-14.7,0-28-3.1-39.8-9.3
		c-11.8-6.2-21-14.9-27.7-26c-6.7-11.1-10-23.7-10-37.8c0-14.1,3.3-26.6,10-37.8c6.7-11.1,16-19.8,27.9-26
		c11.9-6.2,25.4-9.3,40.4-9.3c13.1,0,24.9,2.2,35.3,6.6c10.4,4.4,19.1,10.8,26.1,19.1l-25.3,22.9c-9.5-10.4-20.9-15.7-34.1-15.7
		c-12,0-21.8,3.6-29.1,10.9c-7.4,7.3-11,17-11,29.2c0,7.8,1.7,14.7,5,20.8c3.3,6.1,8,10.8,14.1,14.3c6,3.4,12.9,5.1,20.7,5.1
		c7.6,0,14.8-1.5,21.5-4.6V73.7z"/>
	<path d="M793,132.8c-11.6-11.4-17.4-27.5-17.4-48.4V6.5h39.8v76.7c0,22.5,8.9,33.7,26.7,33.7c17.7,0,26.5-11.2,26.5-33.7V6.5h39.2
		v77.9c0,20.9-5.8,37-17.4,48.4c-11.6,11.4-27.8,17.1-48.7,17.1S804.5,144.1,793,132.8z"/>
</g>
<g class="st1">
	<path d="M966.5,69.2v80.6h-22.8v-63h-15V69.2H966.5z"/>
	<path d="M993.9,145c-5.2-3.2-9.3-7.9-12.3-14.1c-3-6.2-4.4-13.5-4.4-22c0-8.5,1.5-15.8,4.4-22c3-6.2,7.1-10.9,12.3-14.1
		c5.2-3.2,11.2-4.8,18-4.8c6.7,0,12.6,1.6,17.9,4.8c5.2,3.2,9.3,7.9,12.3,14.1c3,6.2,4.4,13.5,4.4,22c0,8.5-1.5,15.8-4.4,22
		c-3,6.2-7.1,10.9-12.3,14.1c-5.2,3.2-11.2,4.8-17.9,4.8C1005.1,149.8,999.1,148.2,993.9,145z M1020.8,126.2
		c2.2-3.6,3.3-9.4,3.3-17.2s-1.1-13.6-3.3-17.2c-2.2-3.6-5.2-5.4-8.9-5.4c-3.8,0-6.8,1.8-9,5.4c-2.2,3.6-3.3,9.4-3.3,17.2
		s1.1,13.6,3.3,17.2c2.2,3.6,5.2,5.4,9,5.4C1015.6,131.6,1018.6,129.8,1020.8,126.2z"/>
</g>
<g class="st1">
	<path d="M1120.7,69.2v14.3l-28.5,66.4h-24.9l27.2-62.6h-21.2v12.4h-19.5V69.2H1120.7z"/>
</g>
<g class="st1">
	<path d="M1125,145.6c-2.5-2.5-3.8-5.6-3.8-9.3c0-3.8,1.2-6.9,3.7-9.3c2.5-2.4,5.6-3.6,9.4-3.6c3.8,0,7,1.2,9.4,3.6
		c2.5,2.4,3.7,5.5,3.7,9.3c0,3.8-1.2,6.9-3.7,9.3c-2.5,2.5-5.6,3.7-9.4,3.7C1130.6,149.3,1127.5,148,1125,145.6z"/>
</g>
<g class="st1">
	<path d="M1187,67.6v80.6h-22.8v-63h-15V67.6H1187z"/>
</g>
</svg>
