<svg xmlns="http://www.w3.org/2000/svg" viewBox="0 0 152.73 99.7"><defs><style>.cls-1{fill:none;}</style></defs><g id="Layer_2" data-name="Layer 2"><g id="Layer_1-2" data-name="Layer 1"><g id="Layer_3_copy" data-name="Layer 3 copy"><path class="cls-1" d="M16.49,25.66a8.81,8.81,0,0,1,8.81-8.81"/><path class="cls-1" d="M127.14,16.85a8.81,8.81,0,0,1,8.8,8.81"/><path class="cls-1" d="M25.3,82.52a8.8,8.8,0,0,1-8.81-8.8"/><path class="cls-1" d="M135.94,73.72a8.8,8.8,0,0,1-8.8,8.8"/><path class="cls-1" d="M16.53,48.3V25.69a8.8,8.8,0,0,1,8.81-8.81H48.45"/><path class="cls-1" d="M104.42,16.88H127.2A8.8,8.8,0,0,1,136,25.69V48.3"/><path class="cls-1" d="M48.61,82.51H25.34a8.8,8.8,0,0,1-8.81-8.81V51.41"/><path class="cls-1" d="M136,51.25V73.7a8.8,8.8,0,0,1-8.81,8.81H104.42"/><path d="M92.67,62.25a20.73,20.73,0,1,1,4.25-12.58A20.7,20.7,0,0,1,92.67,62.25Z"/><path class="cls-1" d="M.08,74.76A24.84,24.84,0,0,0,24.92,99.59"/><path class="cls-1" d="M24.92,0A24.84,24.84,0,0,0,.08,24.84"/><path class="cls-1" d="M92.64,99.53v-17H127a8.81,8.81,0,0,0,8.81-8.81v-48A8.81,8.81,0,0,0,127,16.88H92.64V0M60.39,0V16.88h-35a8.8,8.8,0,0,0-8.81,8.81v48a8.8,8.8,0,0,0,8.81,8.81H60.39v17"/><path class="cls-1" d="M152.73,24.84A24.84,24.84,0,0,0,127.9,0"/><path class="cls-1" d="M127.9,99.59a24.83,24.83,0,0,0,24.83-24.83"/><path d="M152.7,24.86v50A24.84,24.84,0,0,1,127.87,99.7H92.64V82.51H127a8.81,8.81,0,0,0,8.81-8.81v-48A8.81,8.81,0,0,0,127,16.88H92.64V0h35.23A24.84,24.84,0,0,1,152.7,24.86Z"/><path d="M25.34,82.51H60.39V99.7H24.84A24.84,24.84,0,0,1,0,74.86v-50A24.84,24.84,0,0,1,24.84,0H60.39V16.88h-35a8.8,8.8,0,0,0-8.81,8.81v48A8.8,8.8,0,0,0,25.34,82.51Z"/><path class="cls-1" d="M127.2,82.52a8.8,8.8,0,0,0,8.81-8.8V25.66a8.81,8.81,0,0,0-8.81-8.81m-101.86,0a8.81,8.81,0,0,0-8.81,8.81V73.72a8.8,8.8,0,0,0,8.81,8.8"/></g></g></g></svg>