<?xml version="1.0" encoding="utf-8"?>
<!-- Generator: Adobe Illustrator 25.2.3, SVG Export Plug-In . SVG Version: 6.00 Build 0)  -->
<svg version="1.1" id="Layer_1" xmlns="http://www.w3.org/2000/svg" xmlns:xlink="http://www.w3.org/1999/xlink" x="0px" y="0px"
	 viewBox="0 0 400 400" style="enable-background:new 0 0 400 400;" xml:space="preserve">
<style type="text/css">
	.st0{fill:none;}
</style>
<g id="Layer_3_copy">
	<path class="st0" d="M81.9,152.3c0-9.6,7.8-17.4,17.4-17.4l0,0"/>
	<path class="st0" d="M300.2,134.9c9.6,0,17.4,7.8,17.4,17.4"/>
	<path class="st0" d="M99.3,264.5c-9.6,0-17.4-7.8-17.4-17.3c0,0,0,0,0,0"/>
	<path class="st0" d="M317.5,247.1c0,9.6-7.8,17.4-17.4,17.4l0,0"/>
	<path class="st0" d="M82,196.9v-44.6c0-9.6,7.8-17.4,17.3-17.4c0,0,0,0,0,0h45.6"/>
	<path class="st0" d="M255.3,135h44.9c9.6,0,17.4,7.8,17.4,17.4c0,0,0,0,0,0v44.6"/>
	<path class="st0" d="M145.2,264.4H99.3c-9.6,0-17.4-7.8-17.4-17.3c0,0,0,0,0,0v-44"/>
	<path class="st0" d="M317.7,202.8v44.3c0,9.6-7.8,17.4-17.3,17.4c0,0,0,0,0,0h-44.9"/>
	<path d="M232.2,224.5c-13.7,18-39.4,21.4-57.3,7.7c-18-13.7-21.4-39.4-7.7-57.3s39.4-21.4,57.3-7.7c10.1,7.7,16.1,19.8,16.1,32.5
		C240.6,208.6,237.6,217.3,232.2,224.5z"/>
	<path class="st0" d="M49.5,249.1c0,27.1,21.9,49,49,49"/>
	<path class="st0" d="M98.5,101.7c-27.1,0-49,21.9-49,49"/>
	<path class="st0" d="M232.1,298v-33.5h67.8c9.6,0,17.4-7.8,17.4-17.4v-94.7c0-9.6-7.7-17.4-17.3-17.4c0,0,0,0-0.1,0h-67.8v-33.3
		 M168.5,101.7V135h-69c-9.6,0-17.4,7.8-17.4,17.3c0,0,0,0,0,0V247c0,9.6,7.8,17.4,17.3,17.4c0,0,0,0,0,0h69V298"/>
	<path class="st0" d="M350.7,150.7c0-27.1-21.9-49-49-49"/>
	<path class="st0" d="M301.7,298.1c27.1,0,49-21.9,49-49"/>
	<path d="M350.6,150.7v98.6c0,27.1-21.9,49-49,49h-69.5v-33.9h67.8c9.6,0,17.4-7.8,17.4-17.4v-94.7c0-9.6-7.8-17.4-17.4-17.4
		c0,0,0,0,0,0h-67.8v-33.3h69.5C328.7,101.7,350.6,123.6,350.6,150.7C350.6,150.7,350.6,150.7,350.6,150.7z"/>
	<path d="M99.3,264.4h69.1v33.9H98.3c-27.1,0-49-21.9-49-49v-98.6c0-27.1,21.9-49,49-49c0,0,0,0,0,0h70.1V135h-69
		c-9.6,0-17.4,7.8-17.4,17.3c0,0,0,0,0,0V247C82,256.6,89.8,264.4,99.3,264.4z"/>
	<path class="st0" d="M300.3,264.5c9.6,0,17.4-7.8,17.4-17.3c0,0,0,0,0,0v-94.8c0-9.6-7.8-17.4-17.4-17.4 M99.3,134.9
		c-9.6,0-17.4,7.8-17.4,17.4c0,0,0,0,0,0v94.8c0,9.6,7.8,17.4,17.4,17.4c0,0,0,0,0,0"/>
</g>
</svg>
