<?xml version="1.0" encoding="utf-8"?>
<!-- Generator: Adobe Illustrator 25.2.3, SVG Export Plug-In . SVG Version: 6.00 Build 0)  -->
<svg version="1.1" id="Layer_1" xmlns="http://www.w3.org/2000/svg" xmlns:xlink="http://www.w3.org/1999/xlink" x="0px" y="0px"
	 viewBox="0 0 152.7 208.5" style="enable-background:new 0 0 152.7 208.5;" xml:space="preserve">
<style type="text/css">
	.st0{enable-background:new    ;}
	.st1{fill:none;}
</style>
<g id="Layer_2_1_">
	<g id="Layer_1-2">
		<g class="st0">
			<path d="M53.7,110.8l-10.4,46.4h-9.7L27.5,129l-6.4,28.3h-9.7L1,110.8h9.3l6.5,29.7l6.8-29.7h8.3l6.5,29.9l6.7-29.9H53.7z"/>
		</g>
		<g class="st0">
			<path d="M78.3,112.9c2.1,1.4,3.8,3.4,4.9,6c1.2,2.6,1.7,5.6,1.7,9.1c0,3.5-0.6,6.5-1.7,9.1c-1.2,2.6-2.8,4.5-4.9,5.9
				c-2.1,1.4-4.7,2.1-7.6,2.1h-5.6v12.1h-9.1v-46.4h14.7C73.7,110.8,76.2,111.5,78.3,112.9z M74.4,133c0.9-1.2,1.4-2.8,1.4-5
				c0-2.2-0.5-3.8-1.4-5c-0.9-1.2-2.4-1.8-4.2-1.8h-5v13.6h5C72.1,134.8,73.5,134.2,74.4,133z"/>
			<path d="M109.6,133.1h8v19.2c-1.8,1.9-3.9,3.4-6.3,4.4c-2.4,1-4.8,1.5-7.1,1.5c-3.4,0-6.4-1-9.1-3.1c-2.7-2.1-4.8-4.9-6.3-8.6
				c-1.5-3.7-2.3-7.8-2.3-12.5s0.8-8.8,2.3-12.5c1.5-3.7,3.6-6.5,6.4-8.6c2.7-2.1,5.8-3.1,9.2-3.1c3,0,5.7,0.7,8.1,2.2
				c2.4,1.5,4.4,3.6,6,6.3l-5.8,7.6c-2.2-3.5-4.8-5.2-7.8-5.2c-2.7,0-5,1.2-6.6,3.6c-1.7,2.4-2.5,5.6-2.5,9.7c0,2.6,0.4,4.9,1.1,6.9
				c0.8,2,1.8,3.6,3.2,4.7c1.4,1.1,2.9,1.7,4.7,1.7c1.7,0,3.4-0.5,4.9-1.5V133.1z"/>
			<path d="M125.2,152.6c-2.6-3.8-4-9.1-4-16v-25.7h9.1v25.3c0,7.4,2,11.1,6.1,11.1c4,0,6-3.7,6-11.1v-25.3h8.9v25.7
				c0,6.9-1.3,12.2-4,16c-2.6,3.8-6.3,5.6-11.1,5.6S127.9,156.3,125.2,152.6z"/>
		</g>
		<g class="st0">
			<path d="M28.5,166v40.8H17v-31.9H9.4V166H28.5z"/>
			<path d="M42.2,205.1c-2.7-1.7-4.8-4.1-6.4-7.3c-1.5-3.2-2.3-7-2.3-11.4s0.8-8.2,2.3-11.4c1.5-3.2,3.7-5.6,6.4-7.3
				c2.7-1.7,5.8-2.5,9.3-2.5c3.5,0,6.5,0.8,9.3,2.5c2.7,1.7,4.8,4.1,6.4,7.3c1.5,3.2,2.3,7,2.3,11.4s-0.8,8.2-2.3,11.4
				c-1.5,3.2-3.7,5.6-6.4,7.3c-2.7,1.7-5.8,2.5-9.3,2.5C48,207.6,44.9,206.8,42.2,205.1z M56.1,195.3c1.1-1.9,1.7-4.9,1.7-8.9
				s-0.6-7.1-1.7-8.9c-1.1-1.9-2.7-2.8-4.6-2.8c-2,0-3.5,0.9-4.7,2.8c-1.1,1.9-1.7,4.9-1.7,8.9s0.6,7.1,1.7,8.9
				c1.1,1.9,2.7,2.8,4.7,2.8C53.4,198.2,55,197.2,56.1,195.3z"/>
		</g>
		<g class="st0">
			<path d="M106.5,166v7.2l-14.4,33.6H79.6l13.7-31.6H82.6v6.3h-9.8V166H106.5z"/>
		</g>
		<g class="st0">
			<path d="M108.7,205.4c-1.3-1.2-1.9-2.8-1.9-4.7c0-1.9,0.6-3.5,1.9-4.7c1.3-1.2,2.8-1.8,4.7-1.8c1.9,0,3.5,0.6,4.8,1.8
				c1.2,1.2,1.9,2.8,1.9,4.7c0,1.9-0.6,3.5-1.9,4.7c-1.3,1.2-2.8,1.9-4.7,1.9C111.5,207.3,110,206.7,108.7,205.4z"/>
		</g>
		<g class="st0">
			<path d="M140,166v40.8h-11.5v-31.9h-7.6V166H140z"/>
		</g>
		<g id="Layer_3_copy">
			<path class="st1" d="M16.5,25.7c0-4.9,3.9-8.8,8.8-8.8l0,0"/>
			<path class="st1" d="M127.1,16.9c4.9,0,8.8,3.9,8.8,8.8"/>
			<path class="st1" d="M25.3,82.5c-4.9,0-8.8-3.9-8.8-8.8c0,0,0,0,0,0"/>
			<path class="st1" d="M135.9,73.7c0,4.9-3.9,8.8-8.8,8.8h0"/>
			<path class="st1" d="M16.5,48.3V25.7c0-4.9,3.9-8.8,8.8-8.8c0,0,0,0,0,0h23.1"/>
			<path class="st1" d="M104.4,16.9h22.8c4.9,0,8.8,3.9,8.8,8.8c0,0,0,0,0,0v22.6"/>
			<path class="st1" d="M48.6,82.5H25.3c-4.9,0-8.8-3.9-8.8-8.8c0,0,0,0,0,0V51.4"/>
			<path class="st1" d="M136,51.2v22.4c0,4.9-3.9,8.8-8.8,8.8c0,0,0,0,0,0h-22.8"/>
			<path d="M92.7,62.2c-6.9,9.1-20,10.8-29.1,3.9s-10.8-20-3.9-29.1s20-10.8,29.1-3.9c5.1,3.9,8.2,10,8.2,16.5
				C96.9,54.2,95.4,58.6,92.7,62.2z"/>
			<path class="st1" d="M0.1,74.8c0,13.7,11.1,24.8,24.8,24.8"/>
			<path class="st1" d="M24.9,0C11.2,0,0.1,11.1,0.1,24.8"/>
			<path class="st1" d="M92.6,99.5v-17H127c4.9,0,8.8-3.9,8.8-8.8v-48c0-4.9-3.9-8.8-8.8-8.8c0,0,0,0,0,0H92.6V0 M60.4,0v16.9h-35
				c-4.9,0-8.8,3.9-8.8,8.8c0,0,0,0,0,0v48c0,4.9,3.9,8.8,8.8,8.8c0,0,0,0,0,0h35v17"/>
			<path class="st1" d="M152.7,24.8c0-13.7-11.1-24.8-24.8-24.8"/>
			<path class="st1" d="M127.9,99.6c13.7,0,24.8-11.1,24.8-24.8"/>
			<path d="M152.7,24.9v50c0,13.7-11.1,24.8-24.8,24.8H92.6V82.5H127c4.9,0,8.8-3.9,8.8-8.8v-48c0-4.9-3.9-8.8-8.8-8.8c0,0,0,0,0,0
				H92.6V0h35.2C141.6,0,152.7,11.1,152.7,24.9C152.7,24.9,152.7,24.9,152.7,24.9z"/>
			<path d="M25.3,82.5h35v17.2H24.8C11.1,99.7,0,88.6,0,74.9v-50C0,11.1,11.1,0,24.8,0c0,0,0,0,0,0h35.5v16.9h-35
				c-4.9,0-8.8,3.9-8.8,8.8c0,0,0,0,0,0v48C16.6,78.5,20.5,82.5,25.3,82.5z"/>
			<path class="st1" d="M127.2,82.5c4.9,0,8.8-3.9,8.8-8.8c0,0,0,0,0,0V25.7c0-4.9-3.9-8.8-8.8-8.8 M25.3,16.8
				c-4.9,0-8.8,3.9-8.8,8.8c0,0,0,0,0,0v48.1c0,4.9,3.9,8.8,8.8,8.8c0,0,0,0,0,0"/>
		</g>
	</g>
</g>
</svg>
