<?xml version="1.0" encoding="utf-8"?>
<!-- Generator: Adobe Illustrator 25.1.0, SVG Export Plug-In . SVG Version: 6.00 Build 0)  -->
<svg version="1.1" id="Layer_1" xmlns="http://www.w3.org/2000/svg" xmlns:xlink="http://www.w3.org/1999/xlink" x="0px" y="0px"
	 viewBox="0 0 24 24" style="enable-background:new 0 0 24 24;" xml:space="preserve">
<style type="text/css">
	.st0{fill:#F7A11A;}
</style>
<path class="st0" d="M21.6,6.6c0,0.2,0,0.4,0,0.6c0,6.5-4.9,13.9-13.9,13.9v0c-2.7,0-5.3-0.8-7.5-2.2c0.4,0,0.8,0.1,1.2,0.1
	c2.2,0,4.3-0.7,6.1-2.1c-2.1,0-3.9-1.4-4.6-3.4c0.7,0.1,1.5,0.1,2.2-0.1C2.7,13,1.1,11,1.1,8.7V8.6C1.8,9,2.5,9.2,3.3,9.2
	C1.2,7.8,0.5,4.9,1.8,2.7C4.3,5.8,8,7.6,11.9,7.8c-0.4-1.7,0.1-3.5,1.4-4.7c2-1.9,5.1-1.8,6.9,0.2c1.1-0.2,2.1-0.6,3.1-1.2
	c-0.4,1.1-1.1,2.1-2.2,2.7c1-0.1,1.9-0.4,2.8-0.8C23.3,5.1,22.5,5.9,21.6,6.6L21.6,6.6z"/>
</svg>
